<svg width="24" height="24" viewBox="0 0 24 24" fill="none" xmlns="http://www.w3.org/2000/svg">
<g clip-path="url(#clip0)">
<path d="M21.7501 20.25C21.3376 20.25 21.0001 19.9125 21.0001 19.5C21.0001 19.0875 21.3376 18.75 21.7501 18.75H22.6876C23.4001 18.75 24.0001 18.15 24.0001 17.4375C24.0001 16.725 23.4001 16.125 22.6876 16.125H18.7501C18.2251 16.125 17.8126 15.7125 17.8126 15.1875C17.8126 14.6625 18.2251 14.25 18.7501 14.25H21.7501C22.3876 14.25 22.8751 13.7625 22.8751 13.125C22.8751 12.4875 22.3876 12 21.7501 12H15.7501V9.75H22.5001C23.3626 9.75 24.0751 9 24.0001 8.1C23.9251 7.3125 23.2126 6.75 22.4251 6.75H21.7501C21.3376 6.75 21.0001 6.4125 21.0001 6C21.0001 5.5875 21.3376 5.25 21.7501 5.25H21.9001C22.3876 5.25 22.8376 4.9125 22.8751 4.425C22.9501 3.8625 22.5001 3.375 21.9376 3.375H16.6876C16.3876 3.375 16.1251 3.1125 16.1251 2.8125C16.1251 2.5125 16.3876 2.25 16.6876 2.25H18.1501C18.6376 2.25 19.0876 1.9125 19.1251 1.425C19.1626 0.8625 18.7501 0.375 18.1876 0.375H5.85006C5.36256 0.375 4.91256 0.7125 4.87506 1.2C4.83756 1.7625 5.25006 2.25 5.81256 2.25H7.12506C7.53756 2.25 7.87506 2.5875 7.87506 3C7.87506 3.4125 7.53756 3.75 7.12506 3.75H2.32506C1.53756 3.75 0.825057 4.3125 0.750057 5.1C0.675057 6 1.38756 6.75 2.25006 6.75H3.18756C3.90006 6.75 4.50006 7.35 4.50006 8.0625C4.50006 8.775 3.90006 9.375 3.18756 9.375H1.95006C1.16256 9.375 0.450057 9.9375 0.375057 10.725C0.300057 11.625 1.01256 12.375 1.87506 12.375H8.25006V16.5H2.25006C1.61256 16.5 1.12506 16.9875 1.12506 17.625C1.12506 18.2625 1.61256 18.75 2.25006 18.75C2.66256 18.75 3.00006 19.0875 3.00006 19.5C3.00006 19.9125 2.66256 20.25 2.25006 20.25H1.57506C0.787557 20.25 0.075057 20.8125 5.69569e-05 21.6C-0.074943 22.5 0.637557 23.25 1.50006 23.25H21.6751C22.4626 23.25 23.1751 22.6875 23.2501 21.9C23.3251 21 22.6126 20.25 21.7501 20.25Z" fill="url(#paint0_radial)"/>
<path d="M16.875 21.375H7.125C5.0625 21.375 3.375 19.6875 3.375 17.625V7.875C3.375 5.8125 5.0625 4.125 7.125 4.125H16.875C18.9375 4.125 20.625 5.8125 20.625 7.875V17.625C20.625 19.6875 18.9375 21.375 16.875 21.375Z" fill="url(#paint1_radial)"/>
<path d="M12 7.5C13.725 7.5 13.9125 7.5 14.5875 7.5375C15.225 7.575 15.5625 7.6875 15.7875 7.7625C16.0875 7.875 16.3125 8.025 16.5375 8.25C16.7625 8.475 16.9125 8.7 17.025 9C17.1 9.225 17.2125 9.5625 17.25 10.2C17.25 10.8375 17.25 11.025 17.25 12.75C17.25 14.475 17.25 14.6625 17.2125 15.3375C17.175 15.975 17.0625 16.3125 16.9875 16.5375C16.875 16.8375 16.725 17.0625 16.5 17.2875C16.275 17.5125 16.05 17.6625 15.75 17.775C15.525 17.85 15.1875 17.9625 14.55 18C13.9125 18 13.725 18 12 18C10.275 18 10.0875 18 9.4125 17.9625C8.775 17.925 8.4375 17.8125 8.2125 17.7375C7.9125 17.625 7.6875 17.475 7.4625 17.25C7.2375 17.025 7.0875 16.8 6.975 16.5C6.9 16.275 6.7875 15.9375 6.75 15.3C6.75 14.6625 6.75 14.475 6.75 12.75C6.75 11.025 6.75 10.8375 6.7875 10.1625C6.825 9.525 6.9375 9.1875 7.0125 8.9625C7.125 8.6625 7.275 8.4375 7.5 8.2125C7.725 7.9875 7.95 7.8375 8.25 7.725C8.475 7.65 8.8125 7.5375 9.45 7.5C10.0875 7.5 10.275 7.5 12 7.5ZM12 6.375C10.275 6.375 10.05 6.375 9.375 6.4125C8.7 6.45 8.25 6.5625 7.8375 6.7125C7.425 6.8625 7.05 7.0875 6.7125 7.4625C6.375 7.8375 6.15 8.175 5.9625 8.5875C5.8125 9 5.7 9.45 5.6625 10.125C5.625 10.8 5.625 11.025 5.625 12.75C5.625 14.475 5.625 14.7 5.6625 15.375C5.7 16.05 5.8125 16.5 5.9625 16.9125C6.1125 17.325 6.3375 17.7 6.7125 18.0375C7.05 18.375 7.425 18.6 7.8375 18.7875C8.25 18.9375 8.7 19.05 9.375 19.0875C10.05 19.125 10.275 19.125 12 19.125C13.725 19.125 13.95 19.125 14.625 19.0875C15.3 19.05 15.75 18.9375 16.1625 18.7875C16.575 18.6375 16.95 18.4125 17.2875 18.0375C17.625 17.7 17.85 17.325 18.0375 16.9125C18.1875 16.5 18.3 16.05 18.3375 15.375C18.375 14.7 18.375 14.475 18.375 12.75C18.375 11.025 18.375 10.8 18.3375 10.125C18.3 9.45 18.1875 9 18.0375 8.5875C17.8875 8.175 17.6625 7.8 17.2875 7.4625C16.9125 7.125 16.575 6.9 16.1625 6.7125C15.75 6.5625 15.3 6.45 14.625 6.4125C13.95 6.375 13.725 6.375 12 6.375Z" fill="white"/>
</g>
<defs>
<radialGradient id="paint0_radial" cx="0" cy="0" r="1" gradientUnits="userSpaceOnUse" gradientTransform="translate(12.0001 11.8125) scale(11.7221)">
<stop stop-color="#F2E0BB"/>
<stop offset="0.011" stop-color="#F2E0BC"/>
<stop offset="0.362" stop-color="#F9EDD2"/>
<stop offset="0.699" stop-color="#FEF4DF"/>
<stop offset="1" stop-color="#FFF7E4"/>
</radialGradient>
<radialGradient id="paint1_radial" cx="0" cy="0" r="1" gradientUnits="userSpaceOnUse" gradientTransform="translate(6.94085 24.8608) rotate(-49.945) scale(26.1171 17.2525)">
<stop offset="0.073" stop-color="#EACC7B"/>
<stop offset="0.184" stop-color="#ECAA59"/>
<stop offset="0.307" stop-color="#EF802E"/>
<stop offset="0.358" stop-color="#EF6D3A"/>
<stop offset="0.46" stop-color="#F04B50"/>
<stop offset="0.516" stop-color="#F03E58"/>
<stop offset="0.689" stop-color="#DB359E"/>
<stop offset="0.724" stop-color="#CE37A4"/>
<stop offset="0.789" stop-color="#AC3CB4"/>
<stop offset="0.877" stop-color="#7544CF"/>
<stop offset="0.98" stop-color="#2B4FF2"/>
</radialGradient>
<clipPath id="clip0">
<rect width="24" height="24" fill="white"/>
</clipPath>
</defs>
</svg>
